<?xml version="1.0" encoding="UTF-8" standalone="no"?>
<svg
   xmlns:dc="http://purl.org/dc/elements/1.1/"
   xmlns:cc="http://creativecommons.org/ns#"
   xmlns:rdf="http://www.w3.org/1999/02/22-rdf-syntax-ns#"
   xmlns:svg="http://www.w3.org/2000/svg"
   xmlns="http://www.w3.org/2000/svg"
   xmlns:xlink="http://www.w3.org/1999/xlink"
   xmlns:sodipodi="http://sodipodi.sourceforge.net/DTD/sodipodi-0.dtd"
   xmlns:inkscape="http://www.inkscape.org/namespaces/inkscape"
   enable-background="new 0 0 55 55"
   height="55px"
   version="1.1"
   viewBox="0 0 55 55"
   width="55px"
   x="0px"
   xml:space="preserve"
   y="0px"
   id="svg2"
   inkscape:version="0.91 r13725"
   sodipodi:docname="icon.svg"><metadata
     id="metadata13"><rdf:RDF><cc:Work
         rdf:about=""><dc:format>image/svg+xml</dc:format><dc:type
           rdf:resource="http://purl.org/dc/dcmitype/StillImage" /><dc:title /></cc:Work></rdf:RDF></metadata><defs
     id="defs11"><linearGradient
       inkscape:collect="always"
       id="linearGradient3790"><stop
         style="stop-color:#ff0000;stop-opacity:1;"
         offset="0"
         id="stop3792" /><stop
         style="stop-color:#ff0000;stop-opacity:0;"
         offset="1"
         id="stop3794" /></linearGradient><linearGradient
       inkscape:collect="always"
       id="linearGradient2844"><stop
         style="stop-color:#0000ff;stop-opacity:1;"
         offset="0"
         id="stop2846" /><stop
         style="stop-color:#0000ff;stop-opacity:0;"
         offset="1"
         id="stop2848" /></linearGradient><linearGradient
       id="linearGradient2824"><stop
         style="stop-color:#00ff00;stop-opacity:1;"
         offset="0"
         id="stop2826" /><stop
         style="stop-color:#00ff00;stop-opacity:0;"
         offset="1"
         id="stop2828" /></linearGradient><inkscape:perspective
       sodipodi:type="inkscape:persp3d"
       inkscape:vp_z="744.09448 : 526.18109 : 1"
       inkscape:vp_y="0 : 1000 : 0"
       inkscape:vp_x="0 : 526.18109 : 1"
       inkscape:persp3d-origin="372.04724 : 350.78739 : 1"
       id="perspective10" /><linearGradient
       y2="11.086151"
       y1="557.7807"
       xlink:href="#linearGradient2824"
       x2="142.61597"
       x1="-45.377811"
       inkscape:collect="always"
       id="linearGradient2830"
       gradientUnits="userSpaceOnUse" /><linearGradient
       y2="85.157555"
       y1="615.60419"
       xlink:href="#linearGradient3790"
       x2="391.86148"
       x1="-109.91237"
       inkscape:collect="always"
       id="linearGradient2838"
       gradientUnits="userSpaceOnUse" /><linearGradient
       y2="102.48757"
       y1="685.17145"
       xlink:href="#linearGradient2844"
       x2="411.30624"
       x1="-125.67691"
       inkscape:collect="always"
       id="linearGradient2850"
       gradientUnits="userSpaceOnUse" /><linearGradient
       y2="784.46094"
       y1="785.2193"
       xlink:href="#linearGradient3790"
       x2="597.14288"
       x1="-27.142857"
       inkscape:collect="always"
       id="linearGradient3796"
       gradientUnits="userSpaceOnUse"
       gradientTransform="matrix(0.91037028,0,0,0.91037028,-10.405283,70.27791)" /></defs><sodipodi:namedview
     pagecolor="#ffffff"
     bordercolor="#666666"
     borderopacity="1"
     objecttolerance="10"
     gridtolerance="10"
     guidetolerance="10"
     inkscape:pageopacity="0"
     inkscape:pageshadow="2"
     inkscape:window-width="1366"
     inkscape:window-height="707"
     id="namedview9"
     showgrid="false"
     inkscape:zoom="17.163636"
     inkscape:cx="25.890423"
     inkscape:cy="22.041131"
     inkscape:window-x="0"
     inkscape:window-y="24"
     inkscape:window-maximized="1"
     inkscape:current-layer="svg2" /><g
     display="block"
     id="stock-xo_1_"
     transform="matrix(0.34101894,0,0,0.34101894,18.73843,0.41077372)"
     style="display:block"><path
       d="m 33.233,35.1 10.102,10.1 c 0.752,0.75 1.217,1.783 1.217,2.932 0,2.287 -1.855,4.143 -4.146,4.143 -1.145,0 -2.178,-0.463 -2.932,-1.211 l -10.102,-10.103 -10.1,10.1 c -0.75,0.75 -1.787,1.211 -2.934,1.211 -2.284,0 -4.143,-1.854 -4.143,-4.141 0,-1.146 0.465,-2.184 1.212,-2.934 L 21.511,35.095 11.409,24.995 c -0.747,-0.748 -1.212,-1.785 -1.212,-2.93 0,-2.289 1.854,-4.146 4.146,-4.146 1.143,0 2.18,0.465 2.93,1.214 L 27.372,29.235 37.474,19.132 c 0.754,-0.749 1.787,-1.214 2.934,-1.214 2.289,0 4.146,1.856 4.146,4.145 0,1.146 -0.467,2.18 -1.217,2.932 L 33.233,35.1 Z"
       id="path5"
       inkscape:connector-curvature="0"
       style="fill:#ffffff;stroke:#010101;stroke-width:3.5" /><circle
       cx="27.371"
       cy="10.849"
       r="8.1219997"
       id="circle7"
       style="fill:#ffffff;stroke:#010101;stroke-width:3.5" /></g><g
     id="g4186"><path
       style="fill:#ffffff;stroke:#010101;stroke-width:1.19356632"
       inkscape:connector-curvature="0"
       id="path4149"
       d="m 44.15233,43.842403 3.444974,3.444291 c 0.256446,0.255764 0.41502,0.608037 0.41502,0.999868 0,0.77991 -0.63259,1.412841 -1.413865,1.412841 -0.390466,0 -0.742739,-0.157892 -0.999867,-0.412974 l -3.444974,-3.445314 -3.444291,3.444291 c -0.255764,0.255764 -0.609401,0.412974 -1.000549,0.412974 -0.778888,0 -1.412842,-0.632249 -1.412842,-1.412159 0,-0.390808 0.158574,-0.744786 0.413315,-1.00055 l 3.445655,-3.444973 -3.444973,-3.444292 c -0.254741,-0.255082 -0.413315,-0.608718 -0.413315,-0.999185 0,-0.780592 0.632249,-1.413865 1.413865,-1.413865 0.389784,0 0.743421,0.158574 0.999185,0.413997 l 3.44395,3.444974 3.444974,-3.445315 c 0.257128,-0.255423 0.609401,-0.413997 1.000549,-0.413997 0.780593,0 1.413865,0.632932 1.413865,1.413524 0,0.390808 -0.159256,0.743421 -0.41502,0.999867 l -3.445656,3.445997 z" /><circle
       style="fill:#ffffff;stroke:#010101;stroke-width:1.19356632"
       id="circle4151"
       r="2.7697558"
       cy="35.572353"
       cx="42.153278" /></g><g
     display="block"
     id="g4153"
     transform="matrix(0.34101894,0,0,0.34101894,4.8192476,31.872638)"
     style="display:block"><path
       d="m 33.233,35.1 10.102,10.1 c 0.752,0.75 1.217,1.783 1.217,2.932 0,2.287 -1.855,4.143 -4.146,4.143 -1.145,0 -2.178,-0.463 -2.932,-1.211 l -10.102,-10.103 -10.1,10.1 c -0.75,0.75 -1.787,1.211 -2.934,1.211 -2.284,0 -4.143,-1.854 -4.143,-4.141 0,-1.146 0.465,-2.184 1.212,-2.934 L 21.511,35.095 11.409,24.995 c -0.747,-0.748 -1.212,-1.785 -1.212,-2.93 0,-2.289 1.854,-4.146 4.146,-4.146 1.143,0 2.18,0.465 2.93,1.214 L 27.372,29.235 37.474,19.132 c 0.754,-0.749 1.787,-1.214 2.934,-1.214 2.289,0 4.146,1.856 4.146,4.145 0,1.146 -0.467,2.18 -1.217,2.932 L 33.233,35.1 Z"
       id="path4155"
       inkscape:connector-curvature="0"
       style="fill:#ffffff;stroke:#010101;stroke-width:3.5" /><circle
       cx="27.371"
       cy="10.849"
       r="8.1219997"
       id="circle4157"
       style="fill:#ffffff;stroke:#010101;stroke-width:3.5" /></g><rect
     style="fill:#ffffff;fill-opacity:1;stroke:#010101;stroke-width:1;stroke-linecap:round;stroke-miterlimit:4;stroke-dasharray:none;stroke-opacity:1"
     id="rect4164"
     width="2.2139831"
     height="12.468221"
     x="26.451271"
     y="22.722458"
     rx="7.6926101e-18"
     ry="0.030495301" /><rect
     height="2.4181316"
     id="rect3859"
     rx="7.6926118e-18"
     ry="0.030495271"
     transform="scale(1,-1)"
     width="9.8273792"
     x="22.678717"
     y="-24.180941"
     style="fill:#ffffff;fill-opacity:1;stroke:#010101;stroke-width:0.69;stroke-miterlimit:4;stroke-dasharray:none;stroke-opacity:1" /><rect
     style="fill:#ffffff;fill-opacity:1;stroke:#010101;stroke-width:0.68968785;stroke-miterlimit:4;stroke-dasharray:none;stroke-opacity:1"
     y="-36.765686"
     x="22.678717"
     width="9.8273792"
     transform="scale(1,-1)"
     ry="0.030495271"
     rx="7.6926118e-18"
     id="rect4166"
     height="2.4181316" /><rect
     ry="0.03129613"
     rx="4.178064e-18"
     y="22.558746"
     x="26.946726"
     height="12.795645"
     width="1.2024739"
     id="rect4182"
     style="fill:#ffffff;fill-opacity:1;stroke:none;stroke-width:0.67257553;stroke-linecap:round;stroke-miterlimit:4;stroke-dasharray:none;stroke-opacity:1" /></svg>