<?xml version="1.0" ?><!DOCTYPE svg  PUBLIC '-//W3C//DTD SVG 1.1//EN'  'http://www.w3.org/Graphics/SVG/1.1/DTD/svg11.dtd' [
	<!ENTITY stroke_color "#666666">
	<!ENTITY fill_color "#ffffff">
]><svg enable-background="new 0 0 55 55" height="55px" id="svg2" inkscape:version="0.91 r13725" sodipodi:docname="icon.svg" version="1.1" viewBox="0 0 55 55" width="55px" x="0px" xml:space="preserve" xmlns="http://www.w3.org/2000/svg" xmlns:cc="http://creativecommons.org/ns#" xmlns:dc="http://purl.org/dc/elements/1.1/" xmlns:inkscape="http://www.inkscape.org/namespaces/inkscape" xmlns:rdf="http://www.w3.org/1999/02/22-rdf-syntax-ns#" xmlns:sodipodi="http://sodipodi.sourceforge.net/DTD/sodipodi-0.dtd" xmlns:svg="http://www.w3.org/2000/svg" xmlns:xlink="http://www.w3.org/1999/xlink" y="0px"><metadata id="metadata13"><rdf:RDF><cc:Work rdf:about=""><dc:format>image/svg+xml</dc:format><dc:type rdf:resource="http://purl.org/dc/dcmitype/StillImage"/><dc:title/></cc:Work></rdf:RDF></metadata><defs id="defs11"><linearGradient id="linearGradient3790" inkscape:collect="always"><stop id="stop3792" offset="0" style="stop-color:#ff0000;stop-opacity:1;"/><stop id="stop3794" offset="1" style="stop-color:#ff0000;stop-opacity:0;"/></linearGradient><linearGradient id="linearGradient2844" inkscape:collect="always"><stop id="stop2846" offset="0" style="stop-color:#0000ff;stop-opacity:1;"/><stop id="stop2848" offset="1" style="stop-color:#0000ff;stop-opacity:0;"/></linearGradient><linearGradient id="linearGradient2824"><stop id="stop2826" offset="0" style="stop-color:#00ff00;stop-opacity:1;"/><stop id="stop2828" offset="1" style="stop-color:#00ff00;stop-opacity:0;"/></linearGradient><inkscape:perspective id="perspective10" inkscape:persp3d-origin="372.04724 : 350.78739 : 1" inkscape:vp_x="0 : 526.18109 : 1" inkscape:vp_y="0 : 1000 : 0" inkscape:vp_z="744.09448 : 526.18109 : 1" sodipodi:type="inkscape:persp3d"/><linearGradient gradientUnits="userSpaceOnUse" id="linearGradient2830" inkscape:collect="always" x1="-45.377811" x2="142.61597" xlink:href="#linearGradient2824" y1="557.7807" y2="11.086151"/><linearGradient gradientUnits="userSpaceOnUse" id="linearGradient2838" inkscape:collect="always" x1="-109.91237" x2="391.86148" xlink:href="#linearGradient3790" y1="615.60419" y2="85.157555"/><linearGradient gradientUnits="userSpaceOnUse" id="linearGradient2850" inkscape:collect="always" x1="-125.67691" x2="411.30624" xlink:href="#linearGradient2844" y1="685.17145" y2="102.48757"/><linearGradient gradientTransform="matrix(0.91037028,0,0,0.91037028,-10.405283,70.27791)" gradientUnits="userSpaceOnUse" id="linearGradient3796" inkscape:collect="always" x1="-27.142857" x2="597.14288" xlink:href="#linearGradient3790" y1="785.2193" y2="784.46094"/></defs><sodipodi:namedview bordercolor="#666666" borderopacity="1" gridtolerance="10" guidetolerance="10" id="namedview9" inkscape:current-layer="svg2" inkscape:cx="25.890423" inkscape:cy="22.041131" inkscape:pageopacity="0" inkscape:pageshadow="2" inkscape:window-height="707" inkscape:window-maximized="1" inkscape:window-width="1366" inkscape:window-x="0" inkscape:window-y="24" inkscape:zoom="17.163636" objecttolerance="10" pagecolor="#ffffff" showgrid="false"/><g display="block" id="stock-xo_1_" style="display:block" transform="matrix(0.34101894,0,0,0.34101894,18.73843,0.41077372)"><path d="m 33.233,35.1 10.102,10.1 c 0.752,0.75 1.217,1.783 1.217,2.932 0,2.287 -1.855,4.143 -4.146,4.143 -1.145,0 -2.178,-0.463 -2.932,-1.211 l -10.102,-10.103 -10.1,10.1 c -0.75,0.75 -1.787,1.211 -2.934,1.211 -2.284,0 -4.143,-1.854 -4.143,-4.141 0,-1.146 0.465,-2.184 1.212,-2.934 L 21.511,35.095 11.409,24.995 c -0.747,-0.748 -1.212,-1.785 -1.212,-2.93 0,-2.289 1.854,-4.146 4.146,-4.146 1.143,0 2.18,0.465 2.93,1.214 L 27.372,29.235 37.474,19.132 c 0.754,-0.749 1.787,-1.214 2.934,-1.214 2.289,0 4.146,1.856 4.146,4.145 0,1.146 -0.467,2.18 -1.217,2.932 L 33.233,35.1 Z" id="path5" inkscape:connector-curvature="0" style="fill:&fill_color;;stroke:&stroke_color;;stroke-width:3.5"/><circle cx="27.371" cy="10.849" id="circle7" r="8.1219997" style="fill:&fill_color;;stroke:&stroke_color;;stroke-width:3.5"/></g><g id="g4186"><path d="m 44.15233,43.842403 3.444974,3.444291 c 0.256446,0.255764 0.41502,0.608037 0.41502,0.999868 0,0.77991 -0.63259,1.412841 -1.413865,1.412841 -0.390466,0 -0.742739,-0.157892 -0.999867,-0.412974 l -3.444974,-3.445314 -3.444291,3.444291 c -0.255764,0.255764 -0.609401,0.412974 -1.000549,0.412974 -0.778888,0 -1.412842,-0.632249 -1.412842,-1.412159 0,-0.390808 0.158574,-0.744786 0.413315,-1.00055 l 3.445655,-3.444973 -3.444973,-3.444292 c -0.254741,-0.255082 -0.413315,-0.608718 -0.413315,-0.999185 0,-0.780592 0.632249,-1.413865 1.413865,-1.413865 0.389784,0 0.743421,0.158574 0.999185,0.413997 l 3.44395,3.444974 3.444974,-3.445315 c 0.257128,-0.255423 0.609401,-0.413997 1.000549,-0.413997 0.780593,0 1.413865,0.632932 1.413865,1.413524 0,0.390808 -0.159256,0.743421 -0.41502,0.999867 l -3.445656,3.445997 z" id="path4149" inkscape:connector-curvature="0" style="fill:&fill_color;;stroke:&stroke_color;;stroke-width:1.19356632"/><circle cx="42.153278" cy="35.572353" id="circle4151" r="2.7697558" style="fill:&fill_color;;stroke:&stroke_color;;stroke-width:1.19356632"/></g><g display="block" id="g4153" style="display:block" transform="matrix(0.34101894,0,0,0.34101894,4.8192476,31.872638)"><path d="m 33.233,35.1 10.102,10.1 c 0.752,0.75 1.217,1.783 1.217,2.932 0,2.287 -1.855,4.143 -4.146,4.143 -1.145,0 -2.178,-0.463 -2.932,-1.211 l -10.102,-10.103 -10.1,10.1 c -0.75,0.75 -1.787,1.211 -2.934,1.211 -2.284,0 -4.143,-1.854 -4.143,-4.141 0,-1.146 0.465,-2.184 1.212,-2.934 L 21.511,35.095 11.409,24.995 c -0.747,-0.748 -1.212,-1.785 -1.212,-2.93 0,-2.289 1.854,-4.146 4.146,-4.146 1.143,0 2.18,0.465 2.93,1.214 L 27.372,29.235 37.474,19.132 c 0.754,-0.749 1.787,-1.214 2.934,-1.214 2.289,0 4.146,1.856 4.146,4.145 0,1.146 -0.467,2.18 -1.217,2.932 L 33.233,35.1 Z" id="path4155" inkscape:connector-curvature="0" style="fill:&fill_color;;stroke:&stroke_color;;stroke-width:3.5"/><circle cx="27.371" cy="10.849" id="circle4157" r="8.1219997" style="fill:&fill_color;;stroke:&stroke_color;;stroke-width:3.5"/></g><rect height="12.468221" id="rect4164" rx="7.6926101e-18" ry="0.030495301" style="fill:&fill_color;;fill-opacity:1;stroke:&stroke_color;;stroke-width:1;stroke-linecap:round;stroke-miterlimit:4;stroke-dasharray:none;stroke-opacity:1" width="2.2139831" x="26.451271" y="22.722458"/><rect height="2.4181316" id="rect3859" rx="7.6926118e-18" ry="0.030495271" style="fill:&fill_color;;fill-opacity:1;stroke:&stroke_color;;stroke-width:0.69;stroke-miterlimit:4;stroke-dasharray:none;stroke-opacity:1" transform="scale(1,-1)" width="9.8273792" x="22.678717" y="-24.180941"/><rect height="2.4181316" id="rect4166" rx="7.6926118e-18" ry="0.030495271" style="fill:&fill_color;;fill-opacity:1;stroke:&stroke_color;;stroke-width:0.68968785;stroke-miterlimit:4;stroke-dasharray:none;stroke-opacity:1" transform="scale(1,-1)" width="9.8273792" x="22.678717" y="-36.765686"/><rect height="12.795645" id="rect4182" rx="4.178064e-18" ry="0.03129613" style="fill:&fill_color;;fill-opacity:1;stroke:none;stroke-width:0.67257553;stroke-linecap:round;stroke-miterlimit:4;stroke-dasharray:none;stroke-opacity:1" width="1.2024739" x="26.946726" y="22.558746"/></svg>